<svg xmlns="http://www.w3.org/2000/svg" width="28" height="28" viewBox="0 0 28 28"><path fill="none" d="M0 0h28v28H0z"/><path fill="#4285f4" d="M23.839 14.439a12.145 12.145 0 0 0-.178-2.1h-9.739v3.976h5.577a4.779 4.779 0 0 1-2.064 3.137v2.58h3.327a10.083 10.083 0 0 0 3.077-7.593z"/><path fill="#34a853" d="M13.922 24.525a9.883 9.883 0 0 0 6.844-2.492l-3.327-2.58a6.262 6.262 0 0 1-9.31-3.274H4.696v2.659a10.326 10.326 0 0 0 9.226 5.687z"/><path fill="#fbbc04" d="M8.126 16.178a6.184 6.184 0 0 1 0-3.953V9.566h-3.43a10.333 10.333 0 0 0 0 9.272z"/><path fill="#ea4335" d="M13.922 7.961a5.61 5.61 0 0 1 3.961 1.548l2.948-2.948a9.923 9.923 0 0 0-6.909-2.686 10.322 10.322 0 0 0-9.226 5.691l3.429 2.659a6.175 6.175 0 0 1 5.797-4.264z"/></svg>