<svg xmlns="http://www.w3.org/2000/svg" width="140.786" height="75.062" viewBox="0 0 140.786 75.062"><path fill="#002f34" d="M92.34 75.062H73.325V0H92.34zM66.36 37.531a29.779 29.779 0 0 1-4.011 14.763C57.16 61.679 46.008 68.487 33.16 68.478 14.823 68.466-.025 54.588 0 37.488S14.915 6.55 33.248 6.584c18.333-.012 33.2 13.847 33.2 30.947zm-23.131 0c0-5.176-4.5-9.372-10.048-9.372s-10.048 4.2-10.048 9.372 4.5 9.372 10.048 9.372a10.437 10.437 0 0 0 7.165-2.715 9.067 9.067 0 0 0 2.975-6.658zm97.4-18.808h-12.581l-7.426 6.927-7.45-6.949h-12.669v12.032l7.335 6.906-7.335 6.841v11.881h12.876l7.266-6.777 7.266 6.777h12.876v-11.9l-7.335-6.82 7.335-6.841V18.723h-.161z"/></svg>